<svg width="98" height="26" viewBox="0 0 98 26" fill="none" xmlns="http://www.w3.org/2000/svg">
<path d="M35.0073 20.1383C35.446 20.4162 35.9066 20.5552 36.3891 20.5554C37.1787 20.5554 37.8184 20.2924 38.3083 19.7664C38.7982 19.2404 39.0431 18.4889 39.0431 17.512L39.0513 17.49C38.2059 18.0237 37.2329 18.3054 36.2408 18.3037C33.27 18.3037 30.8618 15.8285 30.8618 12.7753C30.8618 9.72202 33.27 7.24683 36.2408 7.24683C37.2246 7.2452 38.1898 7.52215 39.0305 8.04728L39.0436 8.06281V7.25497H42.2021V17.3543C42.2021 18.256 42.0668 19.0863 41.7963 19.8453C41.5258 20.6043 41.1382 21.258 40.6337 21.8065C40.1292 22.3549 39.5187 22.7795 38.8023 23.0801C38.0858 23.3807 37.2815 23.5311 36.3895 23.5311C35.6142 23.5311 34.9197 23.4296 34.3059 23.2267C33.6921 23.0238 33.1547 22.7608 32.6937 22.4377L35.0073 20.1383ZM36.2409 10.3553C34.9403 10.3553 33.8858 11.4389 33.8858 12.7758C33.8858 14.1126 34.9403 15.1962 36.2409 15.1962C37.5415 15.1962 38.5961 14.1125 38.5961 12.7758C38.5961 11.439 37.5416 10.3553 36.2409 10.3553Z" fill="#F95D44"/>
<path d="M45.0056 6.22448C44.7476 6.22448 44.5091 6.1748 44.2901 6.07544C43.8603 5.88545 43.5178 5.53337 43.333 5.09168C43.2363 4.86657 43.188 4.62149 43.188 4.35644C43.1876 4.10701 43.2369 3.86013 43.333 3.63107C43.4235 3.40873 43.5548 3.20637 43.7197 3.03502C43.8841 2.86719 44.0775 2.73247 44.2901 2.63782C44.5091 2.53845 44.7476 2.48877 45.0056 2.48877C45.2482 2.48833 45.4884 2.53906 45.7112 2.63782C45.9282 2.72965 46.1253 2.86472 46.2913 3.03523C46.4572 3.20575 46.5886 3.40834 46.678 3.63132C46.7741 3.86038 46.8234 4.10725 46.823 4.35669C46.823 4.62182 46.7747 4.8669 46.678 5.09192C46.5859 5.31046 46.4547 5.50932 46.2913 5.67824C46.1245 5.8477 45.9276 5.98263 45.7112 6.07569C45.4884 6.17436 45.2482 6.225 45.0056 6.22448ZM46.5391 18.2721V7.22637H43.3605V18.2721H46.5391Z" fill="#F95D44"/>
<path d="M51.7302 20.1383C52.1689 20.4162 52.6295 20.5552 53.112 20.5554C53.9016 20.5554 54.5413 20.2924 55.0312 19.7664C55.5211 19.2404 55.766 18.4889 55.766 17.512L55.7742 17.49C54.9288 18.0237 53.9558 18.3054 52.9638 18.3037C49.993 18.3037 47.5847 15.8285 47.5847 12.7753C47.5847 9.72202 49.993 7.24683 52.9638 7.24683C53.9474 7.24526 54.9125 7.52216 55.7531 8.04716L55.766 8.06269V7.25497H58.9245V17.3543C58.9245 18.256 58.7893 19.0863 58.5188 19.8453C58.2484 20.6043 57.8609 21.258 57.3563 21.8065C56.8518 22.3549 56.2413 22.7795 55.5248 23.0801C54.8083 23.3807 54.0041 23.5311 53.112 23.5311C52.3369 23.5311 51.6423 23.4296 51.0283 23.2267C50.4143 23.0238 49.8769 22.7608 49.4161 22.4377L51.7302 20.1383ZM52.9638 10.3553C51.6631 10.3553 50.6087 11.4389 50.6087 12.7757C50.6087 14.1126 51.6631 15.1962 52.9638 15.1962C54.2645 15.1962 55.3189 14.1125 55.3189 12.7757C55.3189 11.439 54.2644 10.3553 52.9638 10.3553Z" fill="#F95D44"/>
<path d="M79.9457 6.20859C79.653 6.20859 79.3825 6.15225 79.134 6.03957C78.6466 5.824 78.2581 5.42465 78.0484 4.92366C77.9386 4.66822 77.8837 4.39019 77.8838 4.08956C77.8834 3.80666 77.9394 3.52668 78.0484 3.26692C78.158 3.00392 78.3042 2.77853 78.487 2.59073C78.6735 2.40028 78.8929 2.24733 79.134 2.13978C79.3826 2.02711 79.6531 1.97077 79.9457 1.97077C80.221 1.97027 80.4935 2.02779 80.7463 2.13978C81.0021 2.25254 81.2215 2.40286 81.4043 2.59073C81.5871 2.77861 81.7333 3.00401 81.8429 3.26692C81.9521 3.52664 82.0083 3.80663 82.008 4.08956C82.008 4.39035 81.9531 4.66839 81.8434 4.92366C81.7389 5.17151 81.5901 5.39705 81.4048 5.58862C81.2217 5.77674 81.0024 5.92706 80.7467 6.03957C80.4938 6.15163 80.2212 6.20916 79.9457 6.20859ZM63.149 7.2461H60.1196V18.3354H63.2539V13.2032C63.2539 12.2111 63.4198 11.4183 63.7517 10.8248C64.0833 10.2313 64.6924 9.93431 65.3561 9.93431C65.9187 9.93431 66.3335 10.111 66.6003 10.4644C66.8671 10.8178 67.0006 11.2799 67.0006 11.8508V18.3353H70.2464V13.2032C70.2464 12.2111 70.4267 11.4183 70.7873 10.8248C71.148 10.2312 71.6816 9.9344 72.3882 9.93431C72.8783 9.93431 73.2498 10.111 73.5025 10.4644C73.7552 10.8178 73.8814 11.2799 73.8811 11.8508L73.8732 15.5492C73.8732 15.5492 73.9098 18.3295 76.6516 18.3295H81.4423V7.24376H78.2637V15.5489H77.0901L77.1267 11.6476C77.1267 11.0017 77.0474 10.408 76.8887 9.86676C76.7301 9.32548 76.4958 8.85965 76.1859 8.46927C75.8757 8.07872 75.4826 7.77439 75.0067 7.55627C74.5309 7.33815 73.9755 7.22913 73.3405 7.22921C72.446 7.22921 71.703 7.42835 71.1118 7.82662C70.5205 8.22489 70.0661 8.68702 69.7486 9.21301C69.5322 8.68702 69.1572 8.22489 68.6235 7.82662C68.0898 7.42835 67.419 7.22921 66.6111 7.22921C65.8754 7.22921 65.2371 7.38323 64.6961 7.69126C64.1552 7.99946 63.6561 8.36424 63.1265 9.02267L63.149 7.2461Z" fill="#F95D44"/>
<path d="M82.5315 18.3261V1.91132H85.8216V18.3261H82.5315Z" fill="#F95D44"/>
<path d="M95.2136 17.5914C94.4106 18.0993 93.4393 18.3533 92.2999 18.3533C91.5174 18.3533 90.7932 18.2157 90.1274 17.9405C89.4616 17.6654 88.8816 17.2809 88.3875 16.7871C87.8933 16.2934 87.5089 15.7114 87.2344 15.0411C86.9599 14.3709 86.8226 13.6337 86.8225 12.8296C86.8225 12.0818 86.9598 11.3728 87.2344 10.7027C87.509 10.0327 87.8901 9.44713 88.3776 8.94612C88.8647 8.44545 89.4344 8.04685 90.0868 7.75032C90.7391 7.4538 91.4495 7.30586 92.218 7.30652C93.0551 7.30652 93.793 7.44759 94.4315 7.72974C95.07 8.01188 95.602 8.39634 96.0274 8.88313C96.4527 9.37 96.7753 9.94119 96.9951 10.5967C97.215 11.2522 97.3248 11.9542 97.3246 12.7025C97.3246 12.8155 97.3212 12.9284 97.3143 13.0411C97.3072 13.1542 97.2969 13.2527 97.2835 13.3369C97.2702 13.428 97.2633 13.5199 97.2629 13.612H89.829C89.9799 14.2893 90.2888 14.7831 90.7556 15.0934C91.2224 15.4037 91.7441 15.5589 92.3205 15.559C92.8971 15.559 93.3741 15.432 93.7516 15.1781L95.2136 17.5914ZM94.4207 11.454C94.3931 11.2847 94.3279 11.1013 94.2252 10.9038C94.1224 10.7063 93.9783 10.5264 93.7928 10.3641C93.6074 10.2021 93.3809 10.068 93.1132 9.96194C92.8454 9.85584 92.5469 9.80295 92.2175 9.80328C91.7368 9.80328 91.2906 9.94435 90.879 10.2265C90.4674 10.5086 90.1654 10.9178 89.9729 11.454H94.4207Z" fill="#F95D44"/>
<path d="M12.5418 0C9.13584 0 8.70919 0.0152865 7.37117 0.0776655C2.8159 0.29217 0.284757 2.8894 0.0755673 7.57583C0.0142738 8.95002 0 9.38951 0 12.89C0 16.3905 0.0142738 16.8301 0.0755673 18.2053C0.284757 22.8869 2.81182 25.4873 7.37117 25.7023C8.70919 25.7653 9.13584 25.78 12.5418 25.78C15.9477 25.78 16.3754 25.7653 17.7134 25.7023C22.2636 25.4884 24.8024 22.8916 25.008 18.2053C25.0693 16.8301 25.0835 16.3916 25.0835 12.89C25.0835 9.3884 25.0691 8.95002 25.008 7.57583C24.8029 2.89939 22.2732 0.292663 17.7134 0.0776655C16.3754 0.0152865 15.9477 0 12.5418 0Z" fill="#F95D44"/>
<path d="M18.4785 6.41661H17.1238C17.5829 7.26069 17.8233 8.21188 17.8218 9.17891C17.8218 12.3102 15.3525 14.8475 12.3065 14.8475C9.26039 14.8475 6.79102 12.3096 6.79102 9.17891C6.79102 6.04825 9.26027 3.51031 12.3069 3.51031H18.479L18.4785 6.41661ZM12.3069 6.51338C10.8745 6.51338 9.71331 7.70672 9.71331 9.17891C9.71331 10.6511 10.874 11.8444 12.3069 11.8444C13.7398 11.8444 14.9005 10.6511 14.9005 9.17891C14.9005 7.70672 13.7388 6.51338 12.3069 6.51338ZM9.71283 22.9258L17.8547 17.3141V13.6501L9.71283 19.2617V22.9258Z" fill="white"/>
</svg>
