<svg width="21" height="21" viewBox="0 0 21 21" fill="none" xmlns="http://www.w3.org/2000/svg">
<path d="M3.59374 20.7813H15.2254C16.2366 20.7813 17.0201 20.4933 17.5758 19.9174C18.1384 19.3482 18.4196 18.5111 18.4196 17.4063V6.8895L16.1797 9.11942V17.1853C16.1797 17.6472 16.0726 17.9922 15.8582 18.2199C15.6439 18.4408 15.3727 18.5514 15.0446 18.5514H3.78459C3.34262 18.5514 3.00445 18.4408 2.77007 18.2199C2.5357 17.9922 2.41852 17.6472 2.41852 17.1853V6.16629C2.41852 5.70424 2.5357 5.35937 2.77007 5.1317C3.00445 4.90401 3.34262 4.79017 3.78459 4.79017H11.9408L14.1707 2.55022H3.59374C2.48213 2.55022 1.63503 2.83816 1.05244 3.41406C0.476547 3.98994 0.188599 4.82701 0.188599 5.92521V17.4063C0.188599 18.5111 0.476547 19.3482 1.05244 19.9174C1.63503 20.4933 2.48213 20.7813 3.59374 20.7813ZM7.49106 13.9308L9.6004 13.0569L18.5603 4.0971L16.9129 2.45982L7.95312 11.4196L7.04909 13.4788C6.98883 13.6127 7.01561 13.7333 7.12945 13.8404C7.24329 13.9475 7.36382 13.9777 7.49106 13.9308ZM19.2835 3.38392L20.067 2.57031C20.2678 2.35602 20.3716 2.11495 20.3783 1.8471C20.3918 1.57255 20.2979 1.33482 20.0971 1.13392L19.8158 0.832579C19.6417 0.651782 19.4173 0.574767 19.1428 0.601562C18.875 0.628343 18.6406 0.74218 18.4397 0.943073L17.6261 1.72656L19.2835 3.38392Z" fill="#474F54"/>
</svg>
